<?xml version="1.0" encoding="utf-8" standalone="no"?>
<!DOCTYPE svg PUBLIC "-//W3C//DTD SVG 1.1//EN"
  "http://www.w3.org/Graphics/SVG/1.1/DTD/svg11.dtd">
<svg xmlns:xlink="http://www.w3.org/1999/xlink" width="293.525133pt" height="291.837929pt" viewBox="0 0 293.525133 291.837929" xmlns="http://www.w3.org/2000/svg" version="1.1">
 <metadata>
  <rdf:RDF xmlns:dc="http://purl.org/dc/elements/1.1/" xmlns:cc="http://creativecommons.org/ns#" xmlns:rdf="http://www.w3.org/1999/02/22-rdf-syntax-ns#">
   <cc:Work>
    <dc:type rdf:resource="http://purl.org/dc/dcmitype/StillImage"/>
    <dc:date>2025-06-14T11:57:09.188200</dc:date>
    <dc:format>image/svg+xml</dc:format>
    <dc:creator>
     <cc:Agent>
      <dc:title>Matplotlib v3.10.3, https://matplotlib.org/</dc:title>
     </cc:Agent>
    </dc:creator>
   </cc:Work>
  </rdf:RDF>
 </metadata>
 <defs>
  <style type="text/css">*{stroke-linejoin: round; stroke-linecap: butt}</style>
 </defs>
 <g id="figure_1">
  <g id="patch_1">
   <path d="M 0 291.837929
L 293.525133 291.837929
L 293.525133 -0
L 0 -0
z
" style="fill: #ffffff"/>
  </g>
  <g id="axes_1">
   <g id="patch_2">
    <path d="M 139.679962 29.24737
L 149.788939 27.747845
L 159.996218 27.246394
L 170.203498 27.747845
L 180.312475 29.24737
L 190.225796 31.730528
L 199.847989 35.173404
L 209.086388 39.542841
L 217.852022 44.79676
L 226.060473 50.884562
L 233.632689 57.747619
L 234.600328 58.815244
L 230.756969 55.331826
L 221.349776 48.354976
L 211.30403 42.333788
L 200.716478 37.326249
L 189.689083 33.380584
L 178.328045 30.534792
L 166.742778 28.81628
L 155.044852 28.241597
L 143.346927 28.81628
L 138.575204 29.524098
z
" clip-path="url(#p839bd782f0)" style="fill: #618341; stroke: #618341; stroke-linejoin: miter"/>
   </g>
   <g id="patch_3">
    <path d="M 252.395872 217.709045
L 247.484612 225.902987
L 241.793854 233.576087
L 235.378403 240.654446
L 228.300043 247.069897
L 220.626944 252.760655
L 212.433001 257.671915
L 203.797127 261.75638
L 194.802489 264.974713
L 185.53571 267.29592
L 176.086036 268.697647
L 166.544472 269.166394
L 157.002907 268.697647
L 147.553233 267.29592
L 143.923202 266.386645
L 155.044852 266.933016
L 166.742778 266.358334
L 178.328045 264.639822
L 189.689083 261.79403
L 200.716478 257.848365
L 211.30403 252.840826
L 221.349776 246.819638
L 230.756969 239.842788
L 239.435013 231.977467
L 247.300333 223.299423
L 254.067146 214.175432
z
" clip-path="url(#p839bd782f0)" style="fill: #6f92c0; stroke: #6f92c0; stroke-linejoin: miter"/>
   </g>
   <g id="PolyCollection_1">
    <path d="M 273.81588 159.285232
L 272.097367 170.8705
L 269.251576 182.231538
L 265.305911 193.258933
L 260.298371 203.846485
L 254.277183 213.89223
L 254.067146 214.175432
L 256.480337 209.07317
L 259.69867 200.078532
L 262.019877 190.811754
L 263.421604 181.36208
L 263.890351 171.820515
L 263.421604 162.27895
L 262.019877 152.829276
L 261.935016 152.490493
L 262.132938 151.700346
L 263.632463 141.591369
L 264.133914 131.384089
L 263.632463 121.17681
L 262.132938 111.067833
L 259.64978 101.154512
L 256.206904 91.532319
L 251.837467 82.29392
L 246.583548 73.528286
L 240.495746 65.319835
L 234.600328 58.815244
L 239.435013 63.197146
L 247.300333 71.87519
L 254.277183 81.282383
L 260.298371 91.328129
L 265.305911 101.915681
L 269.251576 112.943076
L 272.097367 124.304114
L 273.81588 135.889382
L 274.390562 147.587307
L 273.81588 159.285232
z
" clip-path="url(#p839bd782f0)" style="fill: #e3451d; stroke: #e3451d"/>
    <path d="M 143.346927 266.358334
L 131.761659 264.639822
L 120.400622 261.79403
L 109.373227 257.848365
L 98.785674 252.840826
L 88.739929 246.819638
L 79.332736 239.842788
L 70.654692 231.977467
L 62.789371 223.299423
L 55.812522 213.89223
L 49.791333 203.846485
L 44.783794 193.258933
L 40.838129 182.231538
L 37.992337 170.8705
L 36.273825 159.285232
L 35.699143 147.587307
L 36.273825 135.889382
L 37.992337 124.304114
L 40.838129 112.943076
L 44.783794 101.915681
L 49.791333 91.328129
L 55.812522 81.282383
L 62.789371 71.87519
L 70.654692 63.197146
L 79.332736 55.331826
L 88.739929 48.354976
L 98.785674 42.333788
L 109.373227 37.326249
L 120.400622 33.380584
L 131.761659 30.534792
L 138.575204 29.524098
L 129.766641 31.730528
L 120.144448 35.173404
L 110.906049 39.542841
L 102.140415 44.79676
L 93.931964 50.884562
L 86.359748 57.747619
L 79.496691 65.319835
L 73.408889 73.528286
L 68.15497 82.29392
L 63.785533 91.532319
L 60.342657 101.154512
L 57.859499 111.067833
L 56.359974 121.17681
L 55.858523 131.384089
L 56.359974 141.591369
L 57.859499 151.700346
L 60.342657 161.613667
L 63.785533 171.23586
L 68.15497 180.474259
L 69.989713 183.535343
L 71.069067 190.811754
L 73.390274 200.078532
L 76.608607 209.07317
L 80.693071 217.709045
L 85.604331 225.902987
L 91.29509 233.576087
L 97.710541 240.654446
L 104.7889 247.069897
L 112.461999 252.760655
L 120.655942 257.671915
L 129.291817 261.75638
L 138.286455 264.974713
L 143.923202 266.386645
L 143.346927 266.358334
z
" clip-path="url(#p839bd782f0)" style="fill: #e3451d; stroke: #e3451d"/>
   </g>
   <g id="patch_4">
    <path d="M 155.044852 28.241597
L 166.742778 28.81628
L 178.328045 30.534792
L 189.689083 33.380584
L 200.716478 37.326249
L 211.30403 42.333788
L 221.349776 48.354976
L 230.756969 55.331826
L 234.600328 58.815244
L 240.495746 65.319835
L 246.583548 73.528286
L 251.837467 82.29392
L 256.206904 91.532319
L 259.64978 101.154512
L 262.132938 111.067833
L 263.632463 121.17681
L 264.133914 131.384089
L 263.632463 141.591369
L 262.132938 151.700346
L 261.935016 152.490493
L 259.69867 143.562498
L 256.480337 134.56786
L 252.395872 125.931985
L 247.484612 117.738042
L 241.793854 110.064943
L 235.378403 102.986584
L 228.300043 96.571133
L 220.626944 90.880375
L 212.433001 85.969114
L 203.797127 81.88465
L 194.802489 78.666317
L 185.53571 76.34511
L 176.086036 74.943383
L 166.544472 74.474636
L 157.002907 74.943383
L 147.553233 76.34511
L 138.286455 78.666317
L 129.291817 81.88465
L 120.655942 85.969114
L 112.461999 90.880375
L 104.7889 96.571133
L 97.710541 102.986584
L 91.29509 110.064943
L 85.604331 117.738042
L 80.693071 125.931985
L 76.608607 134.56786
L 73.390274 143.562498
L 71.069067 152.829276
L 69.66734 162.27895
L 69.198593 171.820515
L 69.66734 181.36208
L 69.989713 183.535343
L 68.15497 180.474259
L 63.785533 171.23586
L 60.342657 161.613667
L 57.859499 151.700346
L 56.359974 141.591369
L 55.858523 131.384089
L 56.359974 121.17681
L 57.859499 111.067833
L 60.342657 101.154512
L 63.785533 91.532319
L 68.15497 82.29392
L 73.408889 73.528286
L 79.496691 65.319835
L 86.359748 57.747619
L 93.931964 50.884562
L 102.140415 44.79676
L 110.906049 39.542841
L 120.144448 35.173404
L 129.766641 31.730528
L 138.575204 29.524098
L 143.346927 28.81628
z
" clip-path="url(#p839bd782f0)" style="fill: #b16a33; stroke: #b16a33; stroke-linejoin: miter"/>
   </g>
   <g id="patch_5">
    <path d="M 239.435013 231.977467
L 230.756969 239.842788
L 221.349776 246.819638
L 211.30403 252.840826
L 200.716478 257.848365
L 189.689083 261.79403
L 178.328045 264.639822
L 166.742778 266.358334
L 155.044852 266.933016
L 143.923202 266.386645
L 138.286455 264.974713
L 129.291817 261.75638
L 120.655942 257.671915
L 112.461999 252.760655
L 104.7889 247.069897
L 97.710541 240.654446
L 91.29509 233.576087
L 85.604331 225.902987
L 80.693071 217.709045
L 76.608607 209.07317
L 73.390274 200.078532
L 71.069067 190.811754
L 69.989713 183.535343
L 73.408889 189.239893
L 79.496691 197.448344
L 86.359748 205.02056
L 93.931964 211.883617
L 102.140415 217.971419
L 110.906049 223.225338
L 120.144448 227.594775
L 129.766641 231.037651
L 139.679962 233.520809
L 149.788939 235.020334
L 159.996218 235.521785
L 170.203498 235.020334
L 180.312475 233.520809
L 190.225796 231.037651
L 199.847989 227.594775
L 209.086388 223.225338
L 217.852022 217.971419
L 226.060473 211.883617
L 233.632689 205.02056
L 240.495746 197.448344
L 246.583548 189.239893
L 251.837467 180.474259
L 256.206904 171.23586
L 259.64978 161.613667
L 261.935016 152.490493
L 262.019877 152.829276
L 263.421604 162.27895
L 263.890351 171.820515
L 263.421604 181.36208
L 262.019877 190.811754
L 259.69867 200.078532
L 256.480337 209.07317
L 254.067146 214.175432
L 247.300333 223.299423
z
" clip-path="url(#p839bd782f0)" style="fill: #b4738d; stroke: #b4738d; stroke-linejoin: miter"/>
   </g>
   <g id="patch_6">
    <path d="M 69.198593 171.820515
L 69.66734 162.27895
L 71.069067 152.829276
L 73.390274 143.562498
L 76.608607 134.56786
L 80.693071 125.931985
L 85.604331 117.738042
L 91.29509 110.064943
L 97.710541 102.986584
L 104.7889 96.571133
L 112.461999 90.880375
L 120.655942 85.969114
L 129.291817 81.88465
L 138.286455 78.666317
L 147.553233 76.34511
L 157.002907 74.943383
L 166.544472 74.474636
L 176.086036 74.943383
L 185.53571 76.34511
L 194.802489 78.666317
L 203.797127 81.88465
L 212.433001 85.969114
L 220.626944 90.880375
L 228.300043 96.571133
L 235.378403 102.986584
L 241.793854 110.064943
L 247.484612 117.738042
L 252.395872 125.931985
L 256.480337 134.56786
L 259.69867 143.562498
L 261.935016 152.490493
L 259.64978 161.613667
L 256.206904 171.23586
L 251.837467 180.474259
L 246.583548 189.239893
L 240.495746 197.448344
L 233.632689 205.02056
L 226.060473 211.883617
L 217.852022 217.971419
L 209.086388 223.225338
L 199.847989 227.594775
L 190.225796 231.037651
L 180.312475 233.520809
L 170.203498 235.020334
L 159.996218 235.521785
L 149.788939 235.020334
L 139.679962 233.520809
L 129.766641 231.037651
L 120.144448 227.594775
L 110.906049 223.225338
L 102.140415 217.971419
L 93.931964 211.883617
L 86.359748 205.02056
L 79.496691 197.448344
L 73.408889 189.239893
L 69.989713 183.535343
L 69.66734 181.36208
z
" clip-path="url(#p839bd782f0)" style="fill: #9f797a; stroke: #9f797a; stroke-linejoin: miter"/>
   </g>
   <g id="text_1">
    <!-- 5 -->
    <g transform="translate(211.396776 46.324649) scale(0.1 -0.1)">
     <defs>
      <path id="DejaVuSans-35" d="M 691 4666
L 3169 4666
L 3169 4134
L 1269 4134
L 1269 2991
Q 1406 3038 1543 3061
Q 1681 3084 1819 3084
Q 2600 3084 3056 2656
Q 3513 2228 3513 1497
Q 3513 744 3044 326
Q 2575 -91 1722 -91
Q 1428 -91 1123 -41
Q 819 9 494 109
L 494 744
Q 775 591 1075 516
Q 1375 441 1709 441
Q 2250 441 2565 725
Q 2881 1009 2881 1497
Q 2881 1984 2565 2268
Q 2250 2553 1709 2553
Q 1456 2553 1204 2497
Q 953 2441 691 2322
L 691 4666
z
" transform="scale(0.015625)"/>
     </defs>
     <use xlink:href="#DejaVuSans-35"/>
    </g>
   </g>
   <g id="text_2">
    <!-- 24 -->
    <g transform="translate(208.121666 256.477282) scale(0.1 -0.1)">
     <defs>
      <path id="DejaVuSans-32" d="M 1228 531
L 3431 531
L 3431 0
L 469 0
L 469 531
Q 828 903 1448 1529
Q 2069 2156 2228 2338
Q 2531 2678 2651 2914
Q 2772 3150 2772 3378
Q 2772 3750 2511 3984
Q 2250 4219 1831 4219
Q 1534 4219 1204 4116
Q 875 4013 500 3803
L 500 4441
Q 881 4594 1212 4672
Q 1544 4750 1819 4750
Q 2544 4750 2975 4387
Q 3406 4025 3406 3419
Q 3406 3131 3298 2873
Q 3191 2616 2906 2266
Q 2828 2175 2409 1742
Q 1991 1309 1228 531
z
" transform="scale(0.015625)"/>
      <path id="DejaVuSans-34" d="M 2419 4116
L 825 1625
L 2419 1625
L 2419 4116
z
M 2253 4666
L 3047 4666
L 3047 1625
L 3713 1625
L 3713 1100
L 3047 1100
L 3047 0
L 2419 0
L 2419 1100
L 313 1100
L 313 1709
L 2253 4666
z
" transform="scale(0.015625)"/>
     </defs>
     <use xlink:href="#DejaVuSans-32"/>
     <use xlink:href="#DejaVuSans-34" transform="translate(63.623047 0)"/>
    </g>
   </g>
   <g id="text_3">
    <!-- 358 -->
    <g transform="translate(46.958627 191.425497) scale(0.1 -0.1)">
     <defs>
      <path id="DejaVuSans-33" d="M 2597 2516
Q 3050 2419 3304 2112
Q 3559 1806 3559 1356
Q 3559 666 3084 287
Q 2609 -91 1734 -91
Q 1441 -91 1130 -33
Q 819 25 488 141
L 488 750
Q 750 597 1062 519
Q 1375 441 1716 441
Q 2309 441 2620 675
Q 2931 909 2931 1356
Q 2931 1769 2642 2001
Q 2353 2234 1838 2234
L 1294 2234
L 1294 2753
L 1863 2753
Q 2328 2753 2575 2939
Q 2822 3125 2822 3475
Q 2822 3834 2567 4026
Q 2313 4219 1838 4219
Q 1578 4219 1281 4162
Q 984 4106 628 3988
L 628 4550
Q 988 4650 1302 4700
Q 1616 4750 1894 4750
Q 2613 4750 3031 4423
Q 3450 4097 3450 3541
Q 3450 3153 3228 2886
Q 3006 2619 2597 2516
z
" transform="scale(0.015625)"/>
      <path id="DejaVuSans-38" d="M 2034 2216
Q 1584 2216 1326 1975
Q 1069 1734 1069 1313
Q 1069 891 1326 650
Q 1584 409 2034 409
Q 2484 409 2743 651
Q 3003 894 3003 1313
Q 3003 1734 2745 1975
Q 2488 2216 2034 2216
z
M 1403 2484
Q 997 2584 770 2862
Q 544 3141 544 3541
Q 544 4100 942 4425
Q 1341 4750 2034 4750
Q 2731 4750 3128 4425
Q 3525 4100 3525 3541
Q 3525 3141 3298 2862
Q 3072 2584 2669 2484
Q 3125 2378 3379 2068
Q 3634 1759 3634 1313
Q 3634 634 3220 271
Q 2806 -91 2034 -91
Q 1263 -91 848 271
Q 434 634 434 1313
Q 434 1759 690 2068
Q 947 2378 1403 2484
z
M 1172 3481
Q 1172 3119 1398 2916
Q 1625 2713 2034 2713
Q 2441 2713 2670 2916
Q 2900 3119 2900 3481
Q 2900 3844 2670 4047
Q 2441 4250 2034 4250
Q 1625 4250 1398 4047
Q 1172 3844 1172 3481
z
" transform="scale(0.015625)"/>
     </defs>
     <use xlink:href="#DejaVuSans-33"/>
     <use xlink:href="#DejaVuSans-35" transform="translate(63.623047 0)"/>
     <use xlink:href="#DejaVuSans-38" transform="translate(127.246094 0)"/>
    </g>
   </g>
   <g id="text_4">
    <!-- 732 -->
    <g transform="translate(139.062408 54.951846) scale(0.1 -0.1)">
     <defs>
      <path id="DejaVuSans-37" d="M 525 4666
L 3525 4666
L 3525 4397
L 1831 0
L 1172 0
L 2766 4134
L 525 4134
L 525 4666
z
" transform="scale(0.015625)"/>
     </defs>
     <use xlink:href="#DejaVuSans-37"/>
     <use xlink:href="#DejaVuSans-33" transform="translate(63.623047 0)"/>
     <use xlink:href="#DejaVuSans-32" transform="translate(127.246094 0)"/>
    </g>
   </g>
   <g id="text_5">
    <!-- 407 -->
    <g transform="translate(130.129005 251.857197) scale(0.1 -0.1)">
     <defs>
      <path id="DejaVuSans-30" d="M 2034 4250
Q 1547 4250 1301 3770
Q 1056 3291 1056 2328
Q 1056 1369 1301 889
Q 1547 409 2034 409
Q 2525 409 2770 889
Q 3016 1369 3016 2328
Q 3016 3291 2770 3770
Q 2525 4250 2034 4250
z
M 2034 4750
Q 2819 4750 3233 4129
Q 3647 3509 3647 2328
Q 3647 1150 3233 529
Q 2819 -91 2034 -91
Q 1250 -91 836 529
Q 422 1150 422 2328
Q 422 3509 836 4129
Q 1250 4750 2034 4750
z
" transform="scale(0.015625)"/>
     </defs>
     <use xlink:href="#DejaVuSans-34"/>
     <use xlink:href="#DejaVuSans-30" transform="translate(63.623047 0)"/>
     <use xlink:href="#DejaVuSans-37" transform="translate(127.246094 0)"/>
    </g>
   </g>
   <g id="text_6">
    <!-- 1688 -->
    <g transform="translate(152.841804 157.757586) scale(0.1 -0.1)">
     <defs>
      <path id="DejaVuSans-31" d="M 794 531
L 1825 531
L 1825 4091
L 703 3866
L 703 4441
L 1819 4666
L 2450 4666
L 2450 531
L 3481 531
L 3481 0
L 794 0
L 794 531
z
" transform="scale(0.015625)"/>
      <path id="DejaVuSans-36" d="M 2113 2584
Q 1688 2584 1439 2293
Q 1191 2003 1191 1497
Q 1191 994 1439 701
Q 1688 409 2113 409
Q 2538 409 2786 701
Q 3034 994 3034 1497
Q 3034 2003 2786 2293
Q 2538 2584 2113 2584
z
M 3366 4563
L 3366 3988
Q 3128 4100 2886 4159
Q 2644 4219 2406 4219
Q 1781 4219 1451 3797
Q 1122 3375 1075 2522
Q 1259 2794 1537 2939
Q 1816 3084 2150 3084
Q 2853 3084 3261 2657
Q 3669 2231 3669 1497
Q 3669 778 3244 343
Q 2819 -91 2113 -91
Q 1303 -91 875 529
Q 447 1150 447 2328
Q 447 3434 972 4092
Q 1497 4750 2381 4750
Q 2619 4750 2861 4703
Q 3103 4656 3366 4563
z
" transform="scale(0.015625)"/>
     </defs>
     <use xlink:href="#DejaVuSans-31"/>
     <use xlink:href="#DejaVuSans-36" transform="translate(63.623047 0)"/>
     <use xlink:href="#DejaVuSans-38" transform="translate(127.246094 0)"/>
     <use xlink:href="#DejaVuSans-38" transform="translate(190.869141 0)"/>
    </g>
   </g>
   <g id="text_7">
    <!-- ciqual -->
    <g transform="translate(7.2 92.760648) scale(0.1 -0.1)">
     <defs>
      <path id="DejaVuSans-63" d="M 3122 3366
L 3122 2828
Q 2878 2963 2633 3030
Q 2388 3097 2138 3097
Q 1578 3097 1268 2742
Q 959 2388 959 1747
Q 959 1106 1268 751
Q 1578 397 2138 397
Q 2388 397 2633 464
Q 2878 531 3122 666
L 3122 134
Q 2881 22 2623 -34
Q 2366 -91 2075 -91
Q 1284 -91 818 406
Q 353 903 353 1747
Q 353 2603 823 3093
Q 1294 3584 2113 3584
Q 2378 3584 2631 3529
Q 2884 3475 3122 3366
z
" transform="scale(0.015625)"/>
      <path id="DejaVuSans-69" d="M 603 3500
L 1178 3500
L 1178 0
L 603 0
L 603 3500
z
M 603 4863
L 1178 4863
L 1178 4134
L 603 4134
L 603 4863
z
" transform="scale(0.015625)"/>
      <path id="DejaVuSans-71" d="M 947 1747
Q 947 1113 1208 752
Q 1469 391 1925 391
Q 2381 391 2643 752
Q 2906 1113 2906 1747
Q 2906 2381 2643 2742
Q 2381 3103 1925 3103
Q 1469 3103 1208 2742
Q 947 2381 947 1747
z
M 2906 525
Q 2725 213 2448 61
Q 2172 -91 1784 -91
Q 1150 -91 751 415
Q 353 922 353 1747
Q 353 2572 751 3078
Q 1150 3584 1784 3584
Q 2172 3584 2448 3432
Q 2725 3281 2906 2969
L 2906 3500
L 3481 3500
L 3481 -1331
L 2906 -1331
L 2906 525
z
" transform="scale(0.015625)"/>
      <path id="DejaVuSans-75" d="M 544 1381
L 544 3500
L 1119 3500
L 1119 1403
Q 1119 906 1312 657
Q 1506 409 1894 409
Q 2359 409 2629 706
Q 2900 1003 2900 1516
L 2900 3500
L 3475 3500
L 3475 0
L 2900 0
L 2900 538
Q 2691 219 2414 64
Q 2138 -91 1772 -91
Q 1169 -91 856 284
Q 544 659 544 1381
z
M 1991 3584
L 1991 3584
z
" transform="scale(0.015625)"/>
      <path id="DejaVuSans-61" d="M 2194 1759
Q 1497 1759 1228 1600
Q 959 1441 959 1056
Q 959 750 1161 570
Q 1363 391 1709 391
Q 2188 391 2477 730
Q 2766 1069 2766 1631
L 2766 1759
L 2194 1759
z
M 3341 1997
L 3341 0
L 2766 0
L 2766 531
Q 2569 213 2275 61
Q 1981 -91 1556 -91
Q 1019 -91 701 211
Q 384 513 384 1019
Q 384 1609 779 1909
Q 1175 2209 1959 2209
L 2766 2209
L 2766 2266
Q 2766 2663 2505 2880
Q 2244 3097 1772 3097
Q 1472 3097 1187 3025
Q 903 2953 641 2809
L 641 3341
Q 956 3463 1253 3523
Q 1550 3584 1831 3584
Q 2591 3584 2966 3190
Q 3341 2797 3341 1997
z
" transform="scale(0.015625)"/>
      <path id="DejaVuSans-6c" d="M 603 4863
L 1178 4863
L 1178 0
L 603 0
L 603 4863
z
" transform="scale(0.015625)"/>
     </defs>
     <use xlink:href="#DejaVuSans-63"/>
     <use xlink:href="#DejaVuSans-69" transform="translate(54.980469 0)"/>
     <use xlink:href="#DejaVuSans-71" transform="translate(82.763672 0)"/>
     <use xlink:href="#DejaVuSans-75" transform="translate(146.240234 0)"/>
     <use xlink:href="#DejaVuSans-61" transform="translate(209.619141 0)"/>
     <use xlink:href="#DejaVuSans-6c" transform="translate(270.898438 0)"/>
    </g>
   </g>
   <g id="text_8">
    <!-- calnut -->
    <g transform="translate(179.828379 282.558242) scale(0.1 -0.1)">
     <defs>
      <path id="DejaVuSans-6e" d="M 3513 2113
L 3513 0
L 2938 0
L 2938 2094
Q 2938 2591 2744 2837
Q 2550 3084 2163 3084
Q 1697 3084 1428 2787
Q 1159 2491 1159 1978
L 1159 0
L 581 0
L 581 3500
L 1159 3500
L 1159 2956
Q 1366 3272 1645 3428
Q 1925 3584 2291 3584
Q 2894 3584 3203 3211
Q 3513 2838 3513 2113
z
" transform="scale(0.015625)"/>
      <path id="DejaVuSans-74" d="M 1172 4494
L 1172 3500
L 2356 3500
L 2356 3053
L 1172 3053
L 1172 1153
Q 1172 725 1289 603
Q 1406 481 1766 481
L 2356 481
L 2356 0
L 1766 0
Q 1100 0 847 248
Q 594 497 594 1153
L 594 3053
L 172 3053
L 172 3500
L 594 3500
L 594 4494
L 1172 4494
z
" transform="scale(0.015625)"/>
     </defs>
     <use xlink:href="#DejaVuSans-63"/>
     <use xlink:href="#DejaVuSans-61" transform="translate(54.980469 0)"/>
     <use xlink:href="#DejaVuSans-6c" transform="translate(116.259766 0)"/>
     <use xlink:href="#DejaVuSans-6e" transform="translate(144.042969 0)"/>
     <use xlink:href="#DejaVuSans-75" transform="translate(207.421875 0)"/>
     <use xlink:href="#DejaVuSans-74" transform="translate(270.800781 0)"/>
    </g>
   </g>
   <g id="text_9">
    <!-- agribalyse -->
    <g transform="translate(130.817078 14.798438) scale(0.1 -0.1)">
     <defs>
      <path id="DejaVuSans-67" d="M 2906 1791
Q 2906 2416 2648 2759
Q 2391 3103 1925 3103
Q 1463 3103 1205 2759
Q 947 2416 947 1791
Q 947 1169 1205 825
Q 1463 481 1925 481
Q 2391 481 2648 825
Q 2906 1169 2906 1791
z
M 3481 434
Q 3481 -459 3084 -895
Q 2688 -1331 1869 -1331
Q 1566 -1331 1297 -1286
Q 1028 -1241 775 -1147
L 775 -588
Q 1028 -725 1275 -790
Q 1522 -856 1778 -856
Q 2344 -856 2625 -561
Q 2906 -266 2906 331
L 2906 616
Q 2728 306 2450 153
Q 2172 0 1784 0
Q 1141 0 747 490
Q 353 981 353 1791
Q 353 2603 747 3093
Q 1141 3584 1784 3584
Q 2172 3584 2450 3431
Q 2728 3278 2906 2969
L 2906 3500
L 3481 3500
L 3481 434
z
" transform="scale(0.015625)"/>
      <path id="DejaVuSans-72" d="M 2631 2963
Q 2534 3019 2420 3045
Q 2306 3072 2169 3072
Q 1681 3072 1420 2755
Q 1159 2438 1159 1844
L 1159 0
L 581 0
L 581 3500
L 1159 3500
L 1159 2956
Q 1341 3275 1631 3429
Q 1922 3584 2338 3584
Q 2397 3584 2469 3576
Q 2541 3569 2628 3553
L 2631 2963
z
" transform="scale(0.015625)"/>
      <path id="DejaVuSans-62" d="M 3116 1747
Q 3116 2381 2855 2742
Q 2594 3103 2138 3103
Q 1681 3103 1420 2742
Q 1159 2381 1159 1747
Q 1159 1113 1420 752
Q 1681 391 2138 391
Q 2594 391 2855 752
Q 3116 1113 3116 1747
z
M 1159 2969
Q 1341 3281 1617 3432
Q 1894 3584 2278 3584
Q 2916 3584 3314 3078
Q 3713 2572 3713 1747
Q 3713 922 3314 415
Q 2916 -91 2278 -91
Q 1894 -91 1617 61
Q 1341 213 1159 525
L 1159 0
L 581 0
L 581 4863
L 1159 4863
L 1159 2969
z
" transform="scale(0.015625)"/>
      <path id="DejaVuSans-79" d="M 2059 -325
Q 1816 -950 1584 -1140
Q 1353 -1331 966 -1331
L 506 -1331
L 506 -850
L 844 -850
Q 1081 -850 1212 -737
Q 1344 -625 1503 -206
L 1606 56
L 191 3500
L 800 3500
L 1894 763
L 2988 3500
L 3597 3500
L 2059 -325
z
" transform="scale(0.015625)"/>
      <path id="DejaVuSans-73" d="M 2834 3397
L 2834 2853
Q 2591 2978 2328 3040
Q 2066 3103 1784 3103
Q 1356 3103 1142 2972
Q 928 2841 928 2578
Q 928 2378 1081 2264
Q 1234 2150 1697 2047
L 1894 2003
Q 2506 1872 2764 1633
Q 3022 1394 3022 966
Q 3022 478 2636 193
Q 2250 -91 1575 -91
Q 1294 -91 989 -36
Q 684 19 347 128
L 347 722
Q 666 556 975 473
Q 1284 391 1588 391
Q 1994 391 2212 530
Q 2431 669 2431 922
Q 2431 1156 2273 1281
Q 2116 1406 1581 1522
L 1381 1569
Q 847 1681 609 1914
Q 372 2147 372 2553
Q 372 3047 722 3315
Q 1072 3584 1716 3584
Q 2034 3584 2315 3537
Q 2597 3491 2834 3397
z
" transform="scale(0.015625)"/>
      <path id="DejaVuSans-65" d="M 3597 1894
L 3597 1613
L 953 1613
Q 991 1019 1311 708
Q 1631 397 2203 397
Q 2534 397 2845 478
Q 3156 559 3463 722
L 3463 178
Q 3153 47 2828 -22
Q 2503 -91 2169 -91
Q 1331 -91 842 396
Q 353 884 353 1716
Q 353 2575 817 3079
Q 1281 3584 2069 3584
Q 2775 3584 3186 3129
Q 3597 2675 3597 1894
z
M 3022 2063
Q 3016 2534 2758 2815
Q 2500 3097 2075 3097
Q 1594 3097 1305 2825
Q 1016 2553 972 2059
L 3022 2063
z
" transform="scale(0.015625)"/>
     </defs>
     <use xlink:href="#DejaVuSans-61"/>
     <use xlink:href="#DejaVuSans-67" transform="translate(61.279297 0)"/>
     <use xlink:href="#DejaVuSans-72" transform="translate(124.755859 0)"/>
     <use xlink:href="#DejaVuSans-69" transform="translate(165.869141 0)"/>
     <use xlink:href="#DejaVuSans-62" transform="translate(193.652344 0)"/>
     <use xlink:href="#DejaVuSans-61" transform="translate(257.128906 0)"/>
     <use xlink:href="#DejaVuSans-6c" transform="translate(318.408203 0)"/>
     <use xlink:href="#DejaVuSans-79" transform="translate(346.191406 0)"/>
     <use xlink:href="#DejaVuSans-73" transform="translate(405.371094 0)"/>
     <use xlink:href="#DejaVuSans-65" transform="translate(457.470703 0)"/>
    </g>
   </g>
  </g>
 </g>
 <defs>
  <clipPath id="p839bd782f0">
   <rect x="23.764572" y="15.150394" width="262.560561" height="266.112"/>
  </clipPath>
 </defs>
</svg>
